<svg xmlns="http://www.w3.org/2000/svg" xmlns:xlink="http://www.w3.org/1999/xlink" width="150" zoomAndPan="magnify" viewBox="0 0 112.5 37.5" height="50" preserveAspectRatio="xMidYMid meet" version="1.0"><defs><g/><clipPath id="f4a10fdea7"><path d="M 10 2.390625 L 34.539062 2.390625 L 34.539062 33 L 10 33 Z M 10 2.390625 " clip-rule="nonzero"/></clipPath><clipPath id="ede478bd35"><path d="M 6.414062 9 L 23 9 L 23 34.957031 L 6.414062 34.957031 Z M 6.414062 9 " clip-rule="nonzero"/></clipPath><clipPath id="a386f20064"><rect x="0" width="65" y="0" height="30"/></clipPath></defs><g clip-path="url(#f4a10fdea7)"><path fill="#ff3b4a" d="M 20.457031 2.402344 L 34.539062 10.628906 L 34.539062 26.761719 L 30.484375 29.0625 L 30.484375 15.367188 L 28.5625 16.304688 L 28.5625 30.15625 L 24.507812 32.550781 L 24.507812 16.515625 L 10.46875 8.390625 L 14.628906 5.785156 L 26.480469 12.867188 L 28.355469 11.722656 L 16.605469 4.847656 Z M 20.457031 2.402344 " fill-opacity="1" fill-rule="nonzero"/></g><g clip-path="url(#ede478bd35)"><path fill="#191b2b" d="M 8.496094 9.328125 L 6.414062 10.578125 L 6.414062 19.839844 L 18.476562 26.824219 L 18.476562 29 L 6.414062 22.1875 L 6.414062 26.8125 L 20.453125 34.949219 L 22.503906 33.78125 L 22.503906 24.46875 L 10.46875 17.476562 L 10.46875 15.472656 L 22.503906 22.136719 L 22.503906 17.476562 Z M 8.496094 9.328125 " fill-opacity="1" fill-rule="nonzero"/></g><g transform="matrix(1, 0, 0, 1, 37, 5)"><g clip-path="url(#a386f20064)"><g fill="#000000" fill-opacity="1"><g transform="translate(0.522669, 23.091801)"><g><path d="M 7.265625 0.328125 C 5.960938 0.328125 4.695312 0.164062 3.46875 -0.15625 C 2.238281 -0.476562 1.242188 -0.910156 0.484375 -1.453125 L 1.96875 -4.796875 C 2.695312 -4.328125 3.535156 -3.945312 4.484375 -3.65625 C 5.429688 -3.363281 6.363281 -3.21875 7.28125 -3.21875 C 9.03125 -3.21875 9.90625 -3.65625 9.90625 -4.53125 C 9.90625 -4.988281 9.65625 -5.328125 9.15625 -5.546875 C 8.65625 -5.765625 7.851562 -6 6.75 -6.25 C 5.539062 -6.507812 4.53125 -6.785156 3.71875 -7.078125 C 2.90625 -7.378906 2.207031 -7.859375 1.625 -8.515625 C 1.050781 -9.179688 0.765625 -10.070312 0.765625 -11.1875 C 0.765625 -12.164062 1.03125 -13.046875 1.5625 -13.828125 C 2.09375 -14.617188 2.890625 -15.242188 3.953125 -15.703125 C 5.023438 -16.171875 6.332031 -16.40625 7.875 -16.40625 C 8.9375 -16.40625 9.976562 -16.285156 11 -16.046875 C 12.03125 -15.804688 12.9375 -15.457031 13.71875 -15 L 12.3125 -11.625 C 10.78125 -12.445312 9.296875 -12.859375 7.859375 -12.859375 C 6.953125 -12.859375 6.289062 -12.722656 5.875 -12.453125 C 5.46875 -12.191406 5.265625 -11.847656 5.265625 -11.421875 C 5.265625 -10.984375 5.507812 -10.65625 6 -10.4375 C 6.488281 -10.226562 7.273438 -10.007812 8.359375 -9.78125 C 9.585938 -9.519531 10.601562 -9.238281 11.40625 -8.9375 C 12.207031 -8.644531 12.898438 -8.171875 13.484375 -7.515625 C 14.078125 -6.867188 14.375 -5.988281 14.375 -4.875 C 14.375 -3.90625 14.101562 -3.03125 13.5625 -2.25 C 13.03125 -1.46875 12.226562 -0.84375 11.15625 -0.375 C 10.09375 0.09375 8.796875 0.328125 7.265625 0.328125 Z M 7.265625 0.328125 "/></g></g></g><g fill="#000000" fill-opacity="1"><g transform="translate(15.380926, 23.091801)"><g><path d="M 1.40625 -12.453125 L 5.765625 -12.453125 L 5.765625 0 L 1.40625 0 Z M 3.578125 -13.828125 C 2.785156 -13.828125 2.140625 -14.046875 1.640625 -14.484375 C 1.148438 -14.929688 0.90625 -15.484375 0.90625 -16.140625 C 0.90625 -16.804688 1.148438 -17.359375 1.640625 -17.796875 C 2.140625 -18.242188 2.785156 -18.46875 3.578125 -18.46875 C 4.367188 -18.46875 5.007812 -18.253906 5.5 -17.828125 C 6 -17.410156 6.25 -16.875 6.25 -16.21875 C 6.25 -15.53125 6 -14.957031 5.5 -14.5 C 5.007812 -14.050781 4.367188 -13.828125 3.578125 -13.828125 Z M 3.578125 -13.828125 "/></g></g></g><g fill="#000000" fill-opacity="1"><g transform="translate(22.568921, 23.091801)"><g><path d="M 9.234375 -12.65625 C 10.367188 -12.65625 11.398438 -12.394531 12.328125 -11.875 C 13.253906 -11.351562 13.988281 -10.601562 14.53125 -9.625 C 15.070312 -8.65625 15.34375 -7.53125 15.34375 -6.25 C 15.34375 -4.957031 15.070312 -3.820312 14.53125 -2.84375 C 13.988281 -1.863281 13.253906 -1.109375 12.328125 -0.578125 C 11.398438 -0.0546875 10.367188 0.203125 9.234375 0.203125 C 7.597656 0.203125 6.375 -0.273438 5.5625 -1.234375 L 5.5625 0 L 1.40625 0 L 1.40625 -17.046875 L 5.765625 -17.046875 L 5.765625 -11.375 C 6.609375 -12.226562 7.765625 -12.65625 9.234375 -12.65625 Z M 8.3125 -3.265625 C 9.082031 -3.265625 9.710938 -3.523438 10.203125 -4.046875 C 10.691406 -4.578125 10.9375 -5.3125 10.9375 -6.25 C 10.9375 -7.164062 10.691406 -7.882812 10.203125 -8.40625 C 9.710938 -8.925781 9.082031 -9.1875 8.3125 -9.1875 C 7.550781 -9.1875 6.925781 -8.925781 6.4375 -8.40625 C 5.945312 -7.882812 5.703125 -7.164062 5.703125 -6.25 C 5.703125 -5.3125 5.945312 -4.578125 6.4375 -4.046875 C 6.925781 -3.523438 7.550781 -3.265625 8.3125 -3.265625 Z M 8.3125 -3.265625 "/></g></g></g><g fill="#000000" fill-opacity="1"><g transform="translate(38.529494, 23.091801)"><g><path d="M 14.125 -6.203125 C 14.125 -6.171875 14.101562 -5.8125 14.0625 -5.125 L 5 -5.125 C 5.1875 -4.476562 5.546875 -3.984375 6.078125 -3.640625 C 6.609375 -3.296875 7.269531 -3.125 8.0625 -3.125 C 8.65625 -3.125 9.171875 -3.207031 9.609375 -3.375 C 10.046875 -3.539062 10.488281 -3.816406 10.9375 -4.203125 L 13.234375 -1.8125 C 12.023438 -0.46875 10.253906 0.203125 7.921875 0.203125 C 6.472656 0.203125 5.195312 -0.0703125 4.09375 -0.625 C 2.988281 -1.175781 2.132812 -1.941406 1.53125 -2.921875 C 0.925781 -3.898438 0.625 -5.007812 0.625 -6.25 C 0.625 -7.46875 0.914062 -8.5625 1.5 -9.53125 C 2.09375 -10.507812 2.910156 -11.273438 3.953125 -11.828125 C 4.992188 -12.378906 6.164062 -12.65625 7.46875 -12.65625 C 8.707031 -12.65625 9.832031 -12.394531 10.84375 -11.875 C 11.851562 -11.363281 12.648438 -10.625 13.234375 -9.65625 C 13.828125 -8.6875 14.125 -7.535156 14.125 -6.203125 Z M 7.484375 -9.5625 C 6.816406 -9.5625 6.253906 -9.367188 5.796875 -8.984375 C 5.347656 -8.597656 5.0625 -8.078125 4.9375 -7.421875 L 10.03125 -7.421875 C 9.914062 -8.078125 9.628906 -8.597656 9.171875 -8.984375 C 8.722656 -9.367188 8.160156 -9.5625 7.484375 -9.5625 Z M 7.484375 -9.5625 "/></g></g></g><g fill="#000000" fill-opacity="1"><g transform="translate(53.272931, 23.091801)"><g><path d="M 5.5625 -10.953125 C 6 -11.523438 6.570312 -11.953125 7.28125 -12.234375 C 8 -12.515625 8.816406 -12.65625 9.734375 -12.65625 L 9.734375 -8.734375 C 9.335938 -8.773438 9.007812 -8.796875 8.75 -8.796875 C 7.8125 -8.796875 7.078125 -8.539062 6.546875 -8.03125 C 6.023438 -7.53125 5.765625 -6.757812 5.765625 -5.71875 L 5.765625 0 L 1.40625 0 L 1.40625 -12.453125 L 5.5625 -12.453125 Z M 5.5625 -10.953125 "/></g></g></g></g></g></svg>