<svg xmlns="http://www.w3.org/2000/svg" width="120" height="32" fill="none"><path fill="#5869FC" d="M9.745 21.588a17.193 17.193 0 0 1-2.743-4.121.265.265 0 0 0-.252-.153.263.263 0 0 0-.25.28c.003.036.012.07.027.101a17.723 17.723 0 0 0 2.827 4.25c.329.366.668.723 1.016 1.07a.263.263 0 0 0 .45-.189.267.267 0 0 0-.08-.187 26.655 26.655 0 0 1-.995-1.05zm-2.328-1.313a.263.263 0 0 0-.477.202.266.266 0 0 0 .04.095c.392.583.817 1.142 1.274 1.674a.262.262 0 0 0 .462-.154.267.267 0 0 0-.064-.193 17.406 17.406 0 0 1-1.235-1.624zM9.858 7.573a6.557 6.557 0 0 1 2.693-.58c1.406 0 2.774.457 3.901 1.304a6.66 6.66 0 0 1 1.133 1.071.264.264 0 0 0 .281.084.262.262 0 0 0 .183-.232.27.27 0 0 0-.062-.194 7.188 7.188 0 0 0-1.222-1.156 7.015 7.015 0 0 0-7.122-.781.265.265 0 0 0-.128.348.264.264 0 0 0 .343.136zm-2.87 2.032a.262.262 0 0 0 .37-.047 6.57 6.57 0 0 1 1.649-1.522.265.265 0 0 0-.284-.447 7.097 7.097 0 0 0-1.782 1.643.266.266 0 0 0 .047.373z"/><path fill="#5869FC" d="M6.984 12a.26.26 0 0 0 .335-.165 5.568 5.568 0 0 1 2.013-2.738 5.495 5.495 0 0 1 3.219-1.043c2.4 0 4.572 1.616 5.281 3.93a4.047 4.047 0 0 0 .256.53.264.264 0 0 0 .36.097.264.264 0 0 0 .13-.264.266.266 0 0 0-.033-.098 3.582 3.582 0 0 1-.213-.433c-.78-2.528-3.156-4.293-5.781-4.293-1.264 0-2.497.4-3.525 1.142a6.098 6.098 0 0 0-2.206 2.998.267.267 0 0 0 .164.337zm3.542 8.876c-2.383-2.658-3.175-5.286-3.31-5.786a5.566 5.566 0 0 1-.134-2.278.268.268 0 0 0-.124-.267.263.263 0 0 0-.396.189 6.099 6.099 0 0 0 .146 2.495c.14.52.964 3.256 3.427 6.003.125.14.252.278.38.415a.265.265 0 0 0 .184.083.262.262 0 0 0 .248-.157.268.268 0 0 0-.05-.29 23.81 23.81 0 0 1-.371-.407zm2.124 2.108a26.423 26.423 0 0 1-.986-.918.262.262 0 0 0-.446.195c0 .07.03.137.08.186.326.32.662.633 1.004.936a.263.263 0 0 0 .437-.217.266.266 0 0 0-.09-.182z"/><path fill="#5869FC" d="M18.534 13.972a14.68 14.68 0 0 1-.196-.214 5.362 5.362 0 0 1-1-1.594 5.002 5.002 0 0 0-.685-1.415.264.264 0 0 0-.273-.11.263.263 0 0 0-.203.215.266.266 0 0 0 .045.2 4.472 4.472 0 0 1 .618 1.286c.055.15.367.947 1.108 1.774.066.073.134.148.203.221a.262.262 0 0 0 .454-.173.267.267 0 0 0-.07-.19h-.001zm-7.156-4.698a4.42 4.42 0 0 1 4.185 1.025.262.262 0 0 0 .44-.209.266.266 0 0 0-.086-.183 4.97 4.97 0 0 0-2.192-1.18 4.943 4.943 0 0 0-2.485.034c-2.662.73-4.239 3.506-3.516 6.19.131.464.294.918.487 1.36a.264.264 0 0 0 .346.139.265.265 0 0 0 .138-.349 10.01 10.01 0 0 1-.463-1.29c-.646-2.401.765-4.885 3.146-5.537zm2.703 13.54a25.019 25.019 0 0 1-2.774-2.65 15.183 15.183 0 0 1-2.195-3.178.264.264 0 0 0-.356-.115.262.262 0 0 0-.13.156.267.267 0 0 0 .019.204 15.715 15.715 0 0 0 2.272 3.29 25.54 25.54 0 0 0 2.832 2.705.262.262 0 0 0 .37-.039.267.267 0 0 0-.038-.373z"/><path fill="#5869FC" d="M15.837 12.666c.038.112.403 1.128 1.329 2.16.29.325.603.647.93.958a.262.262 0 0 0 .444-.2.268.268 0 0 0-.082-.185c-.317-.302-.62-.614-.902-.928-.842-.94-1.176-1.848-1.22-1.973a4.003 4.003 0 0 0-1.427-2.055 3.95 3.95 0 0 0-2.359-.796.266.266 0 0 0 0 .53 3.423 3.423 0 0 1 2.047.693 3.47 3.47 0 0 1 1.236 1.784l.004.012zm-5.245 5.754a.264.264 0 0 0 .273.105.263.263 0 0 0 .201-.214.267.267 0 0 0-.044-.198c-1.25-1.781-1.697-3.294-1.774-3.58a3.48 3.48 0 0 1 .3-2.555 3.433 3.433 0 0 1 1.969-1.638.264.264 0 0 0 .171-.333.262.262 0 0 0-.33-.173 3.96 3.96 0 0 0-2.273 1.89 4.015 4.015 0 0 0-.345 2.949c.113.422.583 1.94 1.852 3.747zm4.649 3.968a24.037 24.037 0 0 1-3.153-2.935 14.77 14.77 0 0 1-.448-.523.264.264 0 0 0-.28-.087.262.262 0 0 0-.186.229.268.268 0 0 0 .06.195c.15.184.304.365.463.542a24.57 24.57 0 0 0 3.223 3 .263.263 0 0 0 .425-.245.267.267 0 0 0-.104-.176zm3.245-5.54a17.955 17.955 0 0 1-1.71-1.666 7.89 7.89 0 0 1-.534-.664.263.263 0 0 0-.472.114c-.011.07.005.14.046.197.176.247.366.483.568.71.55.61 1.138 1.183 1.762 1.715a.262.262 0 0 0 .37-.032.266.266 0 0 0-.03-.373z"/><path fill="#5869FC" d="M11.93 11.323a2.351 2.351 0 0 1 1.784.223c.542.308.942.82 1.114 1.422l.003.008c.02.066.139.418.408.923a.264.264 0 0 0 .356.108.265.265 0 0 0 .128-.157c.01-.034.013-.069.01-.103a.27.27 0 0 0-.03-.1 5.537 5.537 0 0 1-.37-.83 2.916 2.916 0 0 0-1.373-1.741 2.875 2.875 0 0 0-2.19-.26 2.9 2.9 0 0 0-1.738 1.37 2.941 2.941 0 0 0-.275 2.208c.107.397.742 2.493 2.723 4.703.427.477.874.936 1.34 1.376a.262.262 0 0 0 .443-.202.267.267 0 0 0-.083-.185c-.455-.43-.892-.879-1.31-1.345-1.9-2.12-2.503-4.11-2.605-4.487a2.409 2.409 0 0 1 .231-1.813c.313-.55.828-.951 1.434-1.118zm4.27 10.464a21.008 21.008 0 0 1-1.233-.989.262.262 0 0 0-.368.032.267.267 0 0 0 .026.372c.421.363.847.704 1.265 1.013a.262.262 0 0 0 .415-.255.266.266 0 0 0-.104-.173z"/><path fill="#5869FC" d="M18.384 18.131a18.913 18.913 0 0 1-2.39-2.237c-1.235-1.379-1.645-2.69-1.67-2.77a1.856 1.856 0 0 0-.87-1.116 1.83 1.83 0 0 0-1.395-.171c-.47.131-.869.445-1.11.872a1.871 1.871 0 0 0-.176 1.407c.01.034.03.109.065.217a.264.264 0 0 0 .332.169.264.264 0 0 0 .169-.334 4.145 4.145 0 0 1-.058-.192c-.092-.339-.047-.7.125-1.006a1.307 1.307 0 0 1 1.792-.5c.304.174.527.461.62.8l.002.005c.018.06.457 1.494 1.784 2.975a19.435 19.435 0 0 0 2.457 2.3.262.262 0 0 0 .416-.139.27.27 0 0 0-.093-.28zm-1.393 2.923a21.308 21.308 0 0 1-3.34-3.025 11.943 11.943 0 0 1-1.931-2.905.265.265 0 0 0-.251-.154.26.26 0 0 0-.236.175.269.269 0 0 0 .01.204c.52 1.107 1.2 2.13 2.017 3.036a21.85 21.85 0 0 0 3.425 3.101.262.262 0 0 0 .367-.062.267.267 0 0 0-.061-.37z"/><path fill="#5869FC" d="M17.624 20.206a20.03 20.03 0 0 1-3.192-2.889c-1.64-1.83-2.116-3.547-2.135-3.62a.268.268 0 0 1 .185-.325.261.261 0 0 1 .323.187c.004.016.473 1.679 2.018 3.402.132.148.267.294.405.439a.264.264 0 0 0 .373.009.267.267 0 0 0 .006-.377c-.133-.14-.265-.283-.394-.427-1.448-1.615-1.897-3.173-1.9-3.187a.799.799 0 0 0-.663-.58.781.781 0 0 0-.583.16.796.796 0 0 0-.278.84c.02.076.53 1.913 2.252 3.835a20.578 20.578 0 0 0 3.28 2.967.26.26 0 0 0 .368-.062.268.268 0 0 0-.065-.371z"/><path fill="#5869FC" d="M18.103 19.249a15.4 15.4 0 0 1-.47-.36 19.77 19.77 0 0 1-1.275-1.109.263.263 0 0 0-.42.303c.014.032.034.06.06.085a20.247 20.247 0 0 0 1.796 1.51.265.265 0 0 0 .196.05.262.262 0 0 0 .216-.202.268.268 0 0 0-.103-.277z"/><path fill="#0A0A0A" fill-rule="evenodd" d="M12.42 1.333C8.329 2.873 5.755 3.463 1.155 3.83a.133.133 0 0 0-.122.126c-.277 5.754-.405 9.12.015 15.048a.14.14 0 0 0 .012.047c1.34 2.855 2.657 4.906 4.429 6.68 1.716 1.716 3.877 3.19 6.943 4.878 3.066-1.688 5.226-3.162 6.942-4.879 1.772-1.773 3.089-3.824 4.429-6.68a.14.14 0 0 0 .012-.046c.42-5.928.293-9.294.015-15.048a.133.133 0 0 0-.122-.126c-4.6-.366-7.193-.957-11.286-2.497zm0-.833h-.007C8.23 2.09 5.717 2.681 1.093 3.05a.913.913 0 0 0-.836.868c-.278 5.764-.408 9.167.016 15.141a.927.927 0 0 0 .085.327c1.364 2.906 2.727 5.042 4.583 6.9 1.853 1.854 4.18 3.412 7.445 5.19l.045.024.045-.025c3.264-1.777 5.591-3.335 7.444-5.19 1.856-1.857 3.22-3.993 4.583-6.9a.924.924 0 0 0 .085-.326c.424-5.974.294-9.377.016-15.14a.913.913 0 0 0-.835-.869c-4.626-.369-7.159-.96-11.34-2.55h-.008z" clip-rule="evenodd"/><path fill="#0A0A0A" fill-rule="evenodd" d="M12.542 4.37c-3.04 1.18-4.969 1.641-8.357 1.926a.212.212 0 0 0-.194.2c-.205 4.396-.297 7.002.015 11.554a.23.23 0 0 0 .018.073c1.007 2.209 1.996 3.795 3.326 5.167 1.286 1.326 2.905 2.466 5.2 3.77 2.295-1.304 3.913-2.444 5.2-3.77 1.33-1.372 2.319-2.958 3.325-5.167a.216.216 0 0 0 .019-.073c.312-4.552.22-7.158.014-11.553a.212.212 0 0 0-.194-.2c-3.389-.286-5.33-.747-8.372-1.926zm0-.665h-.015c-3.11 1.22-4.99 1.681-8.393 1.967a.836.836 0 0 0-.763.795c-.206 4.404-.299 7.038.015 11.626.007.1.032.2.074.291 1.025 2.25 2.05 3.904 3.446 5.344 1.395 1.437 3.145 2.646 5.598 4.024h.092c2.453-1.378 4.203-2.587 5.597-4.024 1.397-1.44 2.422-3.095 3.447-5.344a.847.847 0 0 0 .073-.291c.315-4.588.221-7.222.016-11.626a.836.836 0 0 0-.763-.795c-3.405-.286-5.299-.748-8.408-1.967h-.016z" clip-rule="evenodd" opacity=".5"/><path fill="#000" d="M113.566 24.6c-1.3 0-2.422-.27-3.367-.813a5.493 5.493 0 0 1-2.169-2.32c-.506-1.005-.759-2.188-.759-3.548 0-1.338.253-2.512.759-3.523.512-1.016 1.226-1.806 2.143-2.37.917-.571 1.995-.856 3.232-.856.799 0 1.553.13 2.262.39a5.103 5.103 0 0 1 1.89 1.185c.551.536.984 1.22 1.299 2.05.315.823.473 1.806.473 2.946v.94h-10.624v-2.066h7.696c-.006-.587-.132-1.11-.38-1.567a2.76 2.76 0 0 0-1.038-1.092c-.439-.265-.951-.398-1.536-.398-.624 0-1.173.152-1.645.457a3.15 3.15 0 0 0-1.106 1.186 3.423 3.423 0 0 0-.396 1.6v1.804c0 .756.138 1.406.413 1.948a2.96 2.96 0 0 0 1.156 1.236c.495.282 1.075.423 1.739.423.444 0 .846-.062 1.206-.186.36-.13.673-.319.937-.567.264-.249.464-.556.599-.923l2.852.321a4.47 4.47 0 0 1-1.029 1.982c-.501.559-1.142.994-1.924 1.304-.782.305-1.677.457-2.683.457zm-7.585-9.823-2.785.305a2.233 2.233 0 0 0-.413-.796 2.054 2.054 0 0 0-.776-.601c-.327-.152-.726-.229-1.199-.229-.635 0-1.17.139-1.603.415-.427.277-.638.635-.633 1.076-.005.378.132.686.414.923.287.237.76.432 1.417.584l2.211.474c1.227.266 2.138.686 2.734 1.262.602.576.906 1.33.912 2.261-.006.819-.245 1.541-.718 2.168-.467.62-1.116 1.106-1.949 1.456-.833.35-1.789.525-2.869.525-1.587 0-2.864-.333-3.831-.999-.968-.672-1.544-1.606-1.73-2.803l2.979-.288c.135.587.422 1.03.86 1.33.44.299 1.01.448 1.714.448.725 0 1.307-.15 1.746-.448.445-.3.667-.67.667-1.11 0-.372-.144-.68-.43-.923-.282-.242-.721-.429-1.317-.558l-2.21-.466c-1.244-.26-2.164-.698-2.76-1.313-.596-.62-.892-1.405-.886-2.354-.006-.802.21-1.496.65-2.083.444-.593 1.06-1.05 1.848-1.372.793-.327 1.707-.491 2.742-.491 1.519 0 2.714.325 3.586.974.878.649 1.421 1.527 1.629 2.633zm-20.719 1.948v7.621h-3.055V11.34h2.92v2.21h.152a3.714 3.714 0 0 1 1.426-1.736c.658-.429 1.47-.643 2.438-.643.895 0 1.674.192 2.338.576.67.384 1.187.94 1.552 1.668.372.728.555 1.612.549 2.65v8.282h-3.055V16.54c0-.87-.225-1.55-.675-2.041-.444-.491-1.06-.737-1.848-.737a2.83 2.83 0 0 0-1.426.356 2.46 2.46 0 0 0-.97 1.007c-.231.44-.346.974-.346 1.601zM74.81 24.6c-1.3 0-2.422-.27-3.367-.813a5.497 5.497 0 0 1-2.169-2.32c-.506-1.005-.76-2.188-.76-3.548 0-1.338.254-2.512.76-3.523.512-1.016 1.227-1.806 2.143-2.37.917-.571 1.995-.856 3.232-.856.8 0 1.553.13 2.262.39a5.103 5.103 0 0 1 1.89 1.185c.551.536.984 1.22 1.3 2.05.314.823.472 1.806.472 2.946v.94H69.95v-2.066h7.696c-.006-.587-.132-1.11-.38-1.567a2.767 2.767 0 0 0-1.038-1.092c-.439-.265-.95-.398-1.535-.398-.625 0-1.173.152-1.646.457-.473.3-.841.695-1.105 1.186a3.42 3.42 0 0 0-.397 1.6v1.804c0 .756.138 1.406.413 1.948.276.536.662.948 1.157 1.236.495.282 1.074.423 1.738.423.444 0 .846-.062 1.206-.186.36-.13.673-.319.937-.567.265-.249.464-.556.6-.923l2.852.321a4.468 4.468 0 0 1-1.03 1.982c-.5.559-1.142.994-1.924 1.304-.782.305-1.676.457-2.683.457zm-6.693-13.261v2.371h-7.662v-2.37h7.662zm-5.746 13.007V10.111c0-.875.18-1.603.54-2.185a3.421 3.421 0 0 1 1.468-1.304c.613-.288 1.294-.432 2.042-.432.529 0 .998.043 1.41.127.41.085.714.161.91.23l-.607 2.37a5.274 5.274 0 0 0-.49-.118 2.949 2.949 0 0 0-.658-.068c-.568 0-.97.138-1.206.415-.231.27-.346.66-.346 1.168v14.032H62.37zm-10.026.228c-1.018 0-1.93-.262-2.734-.787s-1.44-1.287-1.907-2.287c-.467-.999-.7-2.213-.7-3.641 0-1.445.236-2.665.709-3.658.478-1 1.122-1.753 1.932-2.261a4.953 4.953 0 0 1 2.709-.77c.76 0 1.384.13 1.873.389.49.254.878.562 1.165.923.286.355.509.691.666 1.008h.127V7.002h3.063v17.343h-3.004v-2.05h-.186a5.238 5.238 0 0 1-.683 1.008c-.298.35-.692.65-1.182.898-.489.248-1.105.372-1.848.372zm.853-2.515c.647 0 1.198-.175 1.654-.525.455-.355.801-.85 1.038-1.482.236-.632.354-1.369.354-2.21s-.118-1.572-.355-2.193c-.23-.621-.573-1.104-1.029-1.448-.45-.345-1.004-.517-1.662-.517-.681 0-1.25.178-1.705.534-.456.355-.799.847-1.03 1.473-.23.627-.345 1.344-.345 2.151 0 .813.115 1.539.346 2.176.236.633.582 1.132 1.038 1.5.46.36 1.026.541 1.696.541zm-7.537-6.384c0 1.869-.349 3.47-1.046 4.801-.692 1.327-1.637 2.343-2.835 3.049-1.193.706-2.546 1.059-4.06 1.059-1.512 0-2.868-.353-4.066-1.059-1.193-.711-2.138-1.73-2.836-3.057-.692-1.332-1.038-2.93-1.038-4.793 0-1.869.346-3.466 1.038-4.793.698-1.332 1.643-2.351 2.835-3.057 1.199-.706 2.555-1.058 4.068-1.058 1.513 0 2.866.352 4.059 1.058 1.198.706 2.143 1.725 2.835 3.057.697 1.327 1.046 2.924 1.046 4.793zm-3.147 0c0-1.315-.206-2.425-.616-3.328-.405-.909-.968-1.595-1.688-2.058-.72-.468-1.55-.703-2.49-.703-.939 0-1.768.235-2.489.703-.72.463-1.285 1.15-1.696 2.058-.405.903-.607 2.013-.607 3.328s.202 2.428.607 3.337c.411.903.976 1.589 1.696 2.057.72.463 1.55.695 2.49.695.94 0 1.769-.232 2.49-.695.72-.468 1.282-1.154 1.687-2.057.41-.91.616-2.022.616-3.337z"/></svg>