<svg xmlns="http://www.w3.org/2000/svg" width="54" height="54" fill="none"><path stroke="#5869FC" stroke-linecap="round" stroke-linejoin="round" stroke-width="2" d="m14.625 29.25 1.765 3.53c.597 1.195.896 1.792 1.295 2.31.354.46.766.87 1.225 1.225.518.399 1.115.698 2.31 1.295l3.53 1.765-3.53 1.765c-1.195.597-1.792.896-2.31 1.295-.46.354-.87.766-1.225 1.225-.399.518-.698 1.115-1.295 2.31l-1.765 3.53-1.765-3.53c-.597-1.195-.896-1.792-1.295-2.31a6.747 6.747 0 0 0-1.225-1.225c-.518-.399-1.115-.698-2.31-1.295L4.5 39.375l3.53-1.765c1.195-.597 1.792-.896 2.31-1.295.46-.354.87-.766 1.225-1.225.399-.518.698-1.115 1.295-2.31l1.765-3.53zM33.75 4.5l2.652 6.895c.634 1.65.952 2.475 1.445 3.168a6.746 6.746 0 0 0 1.59 1.59c.693.493 1.518.81 3.168 1.445L49.5 20.25l-6.895 2.652c-1.65.634-2.475.952-3.168 1.445a6.746 6.746 0 0 0-1.59 1.59c-.493.693-.81 1.518-1.445 3.168L33.75 36l-2.652-6.895c-.634-1.65-.952-2.475-1.445-3.168a6.746 6.746 0 0 0-1.59-1.59c-.693-.493-1.518-.81-3.168-1.445L18 20.25l6.895-2.652c1.65-.634 2.475-.952 3.168-1.445a6.746 6.746 0 0 0 1.59-1.59c.493-.693.81-1.518 1.445-3.168L33.75 4.5z"/></svg>