<svg xmlns="http://www.w3.org/2000/svg" width="54" height="54" fill="none"><path stroke="currentColor" stroke-linecap="round" stroke-linejoin="round" stroke-width="2" d="M10.125 49.5V38.25m0-22.5V4.5M4.5 10.125h11.25M4.5 43.875h11.25M29.25 6.75l-3.902 10.145c-.634 1.65-.952 2.475-1.445 3.168a6.746 6.746 0 0 1-1.59 1.59c-.693.493-1.518.81-3.168 1.445L9 27l10.145 3.902c1.65.634 2.475.952 3.168 1.445a6.746 6.746 0 0 1 1.59 1.59c.493.693.81 1.518 1.445 3.168L29.25 47.25l3.902-10.145c.634-1.65.952-2.475 1.445-3.168a6.746 6.746 0 0 1 1.59-1.59c.693-.493 1.518-.81 3.168-1.445L49.5 27l-10.145-3.902c-1.65-.634-2.475-.952-3.168-1.445a6.746 6.746 0 0 1-1.59-1.59c-.493-.693-.81-1.518-1.445-3.168L29.25 6.75z"/></svg>